<mxfile host="processflow.sharehoo.cn" modified="2021-04-07T07:31:18.209Z" agent="5.0 (Windows NT 10.0; Win64; x64) AppleWebKit/537.36 (KHTML, like Gecko) Chrome/89.0.4389.90 Safari/537.36" etag="Ctg6kG875QvfIjFDQAfm" version="14.3.2" type="github">
  <diagram id="R2lEEEUBdFMjLlhIrx00" name="Page-1">
    <mxGraphModel dx="4013" dy="1524" grid="1" gridSize="10" guides="1" tooltips="1" connect="1" arrows="1" fold="1" page="1" pageScale="1" pageWidth="1169" pageHeight="827" math="0" shadow="0" extFonts="Permanent Marker^https://fonts.googleapis.com/css?family=Permanent+Marker">
      <root>
        <mxCell id="0" />
        <mxCell id="1" parent="0" />
        <mxCell id="IkM9e0mJhmBElgOefRj0-1" value="" style="endArrow=none;html=1;fontSize=19;strokeColor=#FF1808;strokeWidth=5;" edge="1" parent="1">
          <mxGeometry width="50" height="50" relative="1" as="geometry">
            <mxPoint x="-60" y="960" as="sourcePoint" />
            <mxPoint x="3510" y="960" as="targetPoint" />
          </mxGeometry>
        </mxCell>
        <mxCell id="IkM9e0mJhmBElgOefRj0-80" style="edgeStyle=orthogonalEdgeStyle;rounded=1;orthogonalLoop=1;jettySize=auto;html=1;strokeColor=#000000;strokeWidth=3;" edge="1" parent="1" source="IkM9e0mJhmBElgOefRj0-3" target="IkM9e0mJhmBElgOefRj0-29">
          <mxGeometry relative="1" as="geometry" />
        </mxCell>
        <mxCell id="IkM9e0mJhmBElgOefRj0-3" value="&lt;span style=&quot;color: rgb(51, 51, 51); font-family: &amp;quot;open sans&amp;quot;, &amp;quot;clear sans&amp;quot;, &amp;quot;helvetica neue&amp;quot;, helvetica, arial, sans-serif; font-size: 19px; text-align: left; background-color: rgb(255, 255, 255);&quot;&gt;&lt;span style=&quot;font-size: 19px;&quot;&gt;dwi_facility_instance&lt;br style=&quot;font-size: 19px;&quot;&gt;&lt;/span&gt;&lt;/span&gt;&lt;span style=&quot;color: rgb(50, 50, 50); font-size: 19px; background-color: rgba(255, 255, 255, 0.01);&quot;&gt;设备实例表&lt;/span&gt;&lt;span style=&quot;color: rgb(51, 51, 51); font-family: &amp;quot;open sans&amp;quot;, &amp;quot;clear sans&amp;quot;, &amp;quot;helvetica neue&amp;quot;, helvetica, arial, sans-serif; font-size: 19px; text-align: left; background-color: rgb(255, 255, 255);&quot;&gt;&lt;span style=&quot;font-size: 19px;&quot;&gt;&lt;br style=&quot;font-size: 19px;&quot;&gt;&lt;/span&gt;&lt;/span&gt;" style="rounded=0;whiteSpace=wrap;html=1;fontStyle=1;fontSize=19;fillColor=#fff2cc;strokeColor=#d6b656;" vertex="1" parent="1">
          <mxGeometry x="330" y="740" width="210" height="50" as="geometry" />
        </mxCell>
        <mxCell id="IkM9e0mJhmBElgOefRj0-95" style="edgeStyle=orthogonalEdgeStyle;rounded=1;orthogonalLoop=1;jettySize=auto;html=1;entryX=1;entryY=0.5;entryDx=0;entryDy=0;strokeColor=#000000;strokeWidth=3;" edge="1" parent="1" source="IkM9e0mJhmBElgOefRj0-7" target="IkM9e0mJhmBElgOefRj0-35">
          <mxGeometry relative="1" as="geometry">
            <Array as="points">
              <mxPoint x="1180" y="845" />
              <mxPoint x="1180" y="580" />
            </Array>
          </mxGeometry>
        </mxCell>
        <mxCell id="IkM9e0mJhmBElgOefRj0-7" value="&lt;span style=&quot;text-align: left; background-color: rgb(248, 248, 248); font-size: 19px;&quot;&gt;&lt;b style=&quot;color: rgb(51, 51, 51); font-family: &amp;quot;open sans&amp;quot;, &amp;quot;clear sans&amp;quot;, &amp;quot;helvetica neue&amp;quot;, helvetica, arial, sans-serif; font-size: 19px;&quot;&gt;dwi_facility_access_device_video_info&lt;/b&gt;&lt;br style=&quot;font-size: 19px;&quot;&gt;&lt;font color=&quot;#333333&quot; face=&quot;open sans, clear sans, helvetica neue, helvetica, arial, sans-serif&quot; style=&quot;font-size: 19px;&quot;&gt;&lt;b style=&quot;font-size: 19px;&quot;&gt;视频设备表&lt;/b&gt;&lt;/font&gt;&lt;br style=&quot;font-size: 19px;&quot;&gt;&lt;/span&gt;" style="rounded=0;whiteSpace=wrap;html=1;fontSize=19;fillColor=#fff2cc;strokeColor=#d6b656;" vertex="1" parent="1">
          <mxGeometry x="860" y="820" width="350" height="50" as="geometry" />
        </mxCell>
        <mxCell id="IkM9e0mJhmBElgOefRj0-96" style="edgeStyle=orthogonalEdgeStyle;rounded=1;orthogonalLoop=1;jettySize=auto;html=1;entryX=1;entryY=0.5;entryDx=0;entryDy=0;strokeColor=#000000;strokeWidth=3;" edge="1" parent="1" source="IkM9e0mJhmBElgOefRj0-9" target="IkM9e0mJhmBElgOefRj0-35">
          <mxGeometry relative="1" as="geometry">
            <Array as="points">
              <mxPoint x="1180" y="775" />
              <mxPoint x="1180" y="580" />
            </Array>
          </mxGeometry>
        </mxCell>
        <mxCell id="IkM9e0mJhmBElgOefRj0-9" value="&lt;span style=&quot;text-align: left; background-color: rgb(255, 255, 255); font-size: 19px;&quot;&gt;&lt;span style=&quot;color: rgb(51, 51, 51); font-family: &amp;quot;open sans&amp;quot;, &amp;quot;clear sans&amp;quot;, &amp;quot;helvetica neue&amp;quot;, helvetica, arial, sans-serif; font-size: 19px;&quot;&gt;dwi_space_access_guard_info&lt;/span&gt;&lt;br style=&quot;font-size: 19px;&quot;&gt;&lt;font color=&quot;#333333&quot; face=&quot;open sans, clear sans, helvetica neue, helvetica, arial, sans-serif&quot; style=&quot;font-size: 19px;&quot;&gt;&lt;span style=&quot;font-size: 19px;&quot;&gt;&lt;span style=&quot;font-size: 19px;&quot;&gt;空间通行出入口信息表&lt;/span&gt;&lt;/span&gt;&lt;/font&gt;&lt;br style=&quot;font-size: 19px;&quot;&gt;&lt;/span&gt;" style="rounded=0;whiteSpace=wrap;html=1;fontStyle=1;fontSize=19;fillColor=#fff2cc;strokeColor=#d6b656;" vertex="1" parent="1">
          <mxGeometry x="860" y="750" width="270" height="50" as="geometry" />
        </mxCell>
        <mxCell id="IkM9e0mJhmBElgOefRj0-93" style="edgeStyle=orthogonalEdgeStyle;rounded=1;orthogonalLoop=1;jettySize=auto;html=1;entryX=1;entryY=0.5;entryDx=0;entryDy=0;strokeColor=#000000;strokeWidth=3;" edge="1" parent="1" source="IkM9e0mJhmBElgOefRj0-11" target="IkM9e0mJhmBElgOefRj0-35">
          <mxGeometry relative="1" as="geometry" />
        </mxCell>
        <mxCell id="IkM9e0mJhmBElgOefRj0-11" value="&lt;span style=&quot;text-align: left; background-color: rgb(255, 255, 255); font-size: 19px;&quot;&gt;&lt;b style=&quot;color: rgb(51, 51, 51); font-family: &amp;quot;open sans&amp;quot;, &amp;quot;clear sans&amp;quot;, &amp;quot;helvetica neue&amp;quot;, helvetica, arial, sans-serif; font-size: 19px;&quot;&gt;dwi_facility_access_device_info&lt;/b&gt;&lt;br style=&quot;font-size: 19px;&quot;&gt;&lt;font color=&quot;#333333&quot; face=&quot;open sans, clear sans, helvetica neue, helvetica, arial, sans-serif&quot; style=&quot;font-size: 19px;&quot;&gt;&lt;b style=&quot;font-size: 19px;&quot;&gt;通行设备表&lt;/b&gt;&lt;/font&gt;&lt;br style=&quot;font-size: 19px;&quot;&gt;&lt;/span&gt;" style="rounded=0;whiteSpace=wrap;html=1;fontSize=19;fillColor=#fff2cc;strokeColor=#d6b656;" vertex="1" parent="1">
          <mxGeometry x="855" y="680" width="280" height="50" as="geometry" />
        </mxCell>
        <mxCell id="IkM9e0mJhmBElgOefRj0-103" style="edgeStyle=orthogonalEdgeStyle;rounded=1;orthogonalLoop=1;jettySize=auto;html=1;entryX=0.5;entryY=1;entryDx=0;entryDy=0;strokeColor=#000000;strokeWidth=3;" edge="1" parent="1" source="IkM9e0mJhmBElgOefRj0-13" target="IkM9e0mJhmBElgOefRj0-3">
          <mxGeometry relative="1" as="geometry" />
        </mxCell>
        <mxCell id="IkM9e0mJhmBElgOefRj0-13" value="&lt;div style=&quot;background-color: rgb(255, 255, 254); font-family: consolas, &amp;quot;courier new&amp;quot;, monospace; line-height: 19px; font-size: 19px;&quot;&gt;&lt;b style=&quot;font-size: 19px;&quot;&gt;&lt;font style=&quot;font-size: 19px;&quot;&gt;DE_Devices&lt;/font&gt;&lt;/b&gt;&lt;/div&gt;" style="rounded=0;whiteSpace=wrap;html=1;fontSize=19;fillColor=#e1d5e7;strokeColor=#9673a6;" vertex="1" parent="1">
          <mxGeometry x="350" y="1070" width="170" height="75" as="geometry" />
        </mxCell>
        <mxCell id="IkM9e0mJhmBElgOefRj0-105" style="edgeStyle=orthogonalEdgeStyle;rounded=1;orthogonalLoop=1;jettySize=auto;html=1;entryX=0.5;entryY=1;entryDx=0;entryDy=0;strokeColor=#000000;strokeWidth=3;" edge="1" parent="1" source="IkM9e0mJhmBElgOefRj0-15" target="IkM9e0mJhmBElgOefRj0-102">
          <mxGeometry relative="1" as="geometry" />
        </mxCell>
        <mxCell id="IkM9e0mJhmBElgOefRj0-15" value="&lt;div style=&quot;background-color: rgb(255, 255, 254); font-family: consolas, &amp;quot;courier new&amp;quot;, monospace; line-height: 19px; font-size: 19px;&quot;&gt;&lt;b style=&quot;font-size: 19px;&quot;&gt;&lt;font style=&quot;font-size: 19px;&quot;&gt;SPA_Basic&lt;/font&gt;&lt;/b&gt;&lt;/div&gt;" style="rounded=0;whiteSpace=wrap;html=1;fontSize=19;fillColor=#e1d5e7;strokeColor=#9673a6;" vertex="1" parent="1">
          <mxGeometry x="2370" y="1065" width="170" height="75" as="geometry" />
        </mxCell>
        <mxCell id="IkM9e0mJhmBElgOefRj0-17" value="&lt;div style=&quot;background-color: rgb(255, 255, 254); font-family: consolas, &amp;quot;courier new&amp;quot;, monospace; line-height: 19px; font-size: 19px;&quot;&gt;&lt;font style=&quot;font-size: 19px;&quot;&gt;&lt;b style=&quot;font-size: 19px;&quot;&gt;SmartCampus__AccessDevice__CST&lt;/b&gt;&lt;/font&gt;&lt;/div&gt;" style="rounded=0;whiteSpace=wrap;html=1;fontSize=19;fillColor=#e1d5e7;strokeColor=#9673a6;" vertex="1" parent="1">
          <mxGeometry x="1592.5" y="1070" width="295" height="75" as="geometry" />
        </mxCell>
        <mxCell id="IkM9e0mJhmBElgOefRj0-19" value="&lt;div style=&quot;background-color: rgb(255, 255, 254); font-family: consolas, &amp;quot;courier new&amp;quot;, monospace; line-height: 19px; font-size: 19px;&quot;&gt;&lt;div style=&quot;font-family: consolas, &amp;quot;courier new&amp;quot;, monospace; line-height: 19px; font-size: 19px;&quot;&gt;&lt;font style=&quot;font-size: 19px;&quot;&gt;&lt;b style=&quot;font-size: 19px;&quot;&gt;SmartCampus__FaceAccessRecord__CST&lt;/b&gt;&lt;/font&gt;&lt;/div&gt;&lt;/div&gt;" style="rounded=0;whiteSpace=wrap;html=1;fontSize=19;fillColor=#e1d5e7;strokeColor=#9673a6;" vertex="1" parent="1">
          <mxGeometry x="1935" y="1070" width="330" height="70" as="geometry" />
        </mxCell>
        <mxCell id="IkM9e0mJhmBElgOefRj0-100" style="edgeStyle=orthogonalEdgeStyle;rounded=1;orthogonalLoop=1;jettySize=auto;html=1;entryX=0.5;entryY=1;entryDx=0;entryDy=0;strokeColor=#000000;strokeWidth=3;" edge="1" parent="1" source="IkM9e0mJhmBElgOefRj0-21" target="IkM9e0mJhmBElgOefRj0-99">
          <mxGeometry relative="1" as="geometry" />
        </mxCell>
        <mxCell id="IkM9e0mJhmBElgOefRj0-21" value="&lt;span style=&quot;text-align: left ; background-color: rgb(255 , 255 , 255)&quot;&gt;&lt;font&gt;&lt;font color=&quot;#333333&quot;&gt;&lt;b&gt;dwi_vehicle.dwi_vehicle_park_keytop&lt;/b&gt;&lt;/font&gt;&lt;br style=&quot;font-size: 19px&quot;&gt;&lt;font color=&quot;#333333&quot;&gt;&lt;span&gt;&lt;b&gt;	&lt;/b&gt;&lt;/span&gt;&lt;span style=&quot;font-size: 19px&quot;&gt;&lt;b&gt;停车场车位信息表&lt;/b&gt;&lt;/span&gt;&lt;/font&gt;&lt;br style=&quot;font-size: 19px&quot;&gt;&lt;/font&gt;&lt;/span&gt;" style="rounded=0;whiteSpace=wrap;html=1;fontSize=19;fillColor=#fff2cc;strokeColor=#d6b656;" vertex="1" parent="1">
          <mxGeometry x="1720" y="720" width="370" height="90" as="geometry" />
        </mxCell>
        <mxCell id="IkM9e0mJhmBElgOefRj0-23" value="&lt;div style=&quot;background-color: rgb(255, 255, 254); font-family: consolas, &amp;quot;courier new&amp;quot;, monospace; line-height: 19px; font-size: 19px;&quot;&gt;&lt;font style=&quot;font-size: 19px;&quot;&gt;&lt;b style=&quot;font-size: 19px;&quot;&gt;SmartCampus__AccessRelatedDevice__CST&lt;/b&gt;&lt;/font&gt;&lt;/div&gt;" style="rounded=0;whiteSpace=wrap;html=1;fontSize=19;fillColor=#e1d5e7;strokeColor=#9673a6;" vertex="1" parent="1">
          <mxGeometry x="1185" y="1070" width="360" height="75" as="geometry" />
        </mxCell>
        <mxCell id="IkM9e0mJhmBElgOefRj0-25" value="&lt;div style=&quot;background-color: rgb(255, 255, 254); font-family: consolas, &amp;quot;courier new&amp;quot;, monospace; line-height: 19px; font-size: 19px;&quot;&gt;&lt;b style=&quot;font-size: 19px;&quot;&gt;&lt;font style=&quot;font-size: 19px;&quot;&gt;SmartCampus__AccessGuard__CST&lt;/font&gt;&lt;/b&gt;&lt;/div&gt;" style="rounded=0;whiteSpace=wrap;html=1;fontSize=19;fillColor=#e1d5e7;strokeColor=#9673a6;" vertex="1" parent="1">
          <mxGeometry x="845" y="1070" width="300" height="75" as="geometry" />
        </mxCell>
        <mxCell id="IkM9e0mJhmBElgOefRj0-26" value="&lt;font style=&quot;font-size: 19px;&quot;&gt;&lt;b style=&quot;font-size: 19px;&quot;&gt;DO&lt;/b&gt;&lt;/font&gt;" style="text;html=1;strokeColor=none;fillColor=none;align=center;verticalAlign=middle;whiteSpace=wrap;rounded=0;fontSize=19;fontColor=#FF2A00;" vertex="1" parent="1">
          <mxGeometry x="-70" y="760" width="200" height="100" as="geometry" />
        </mxCell>
        <mxCell id="IkM9e0mJhmBElgOefRj0-76" style="edgeStyle=orthogonalEdgeStyle;rounded=1;orthogonalLoop=1;jettySize=auto;html=1;entryX=0.5;entryY=1;entryDx=0;entryDy=0;strokeColor=#000000;strokeWidth=3;" edge="1" parent="1" source="IkM9e0mJhmBElgOefRj0-29" target="IkM9e0mJhmBElgOefRj0-52">
          <mxGeometry relative="1" as="geometry">
            <Array as="points">
              <mxPoint x="425" y="500" />
              <mxPoint x="580" y="500" />
            </Array>
          </mxGeometry>
        </mxCell>
        <mxCell id="IkM9e0mJhmBElgOefRj0-29" value="&lt;span style=&quot;text-align: left; background-color: rgb(255, 255, 255); font-size: 19px;&quot;&gt;&lt;b style=&quot;color: rgb(51, 51, 51); font-family: &amp;quot;open sans&amp;quot;, &amp;quot;clear sans&amp;quot;, &amp;quot;helvetica neue&amp;quot;, helvetica, arial, sans-serif; font-size: 19px;&quot;&gt;dim_facility_instance_d&lt;/b&gt;&lt;br style=&quot;font-size: 19px;&quot;&gt;&lt;font color=&quot;#333333&quot; face=&quot;open sans, clear sans, helvetica neue, helvetica, arial, sans-serif&quot; style=&quot;font-size: 19px;&quot;&gt;&lt;b style=&quot;font-size: 19px;&quot;&gt;设备实例维表&lt;/b&gt;&lt;/font&gt;&lt;br style=&quot;font-size: 19px;&quot;&gt;&lt;/span&gt;" style="rounded=0;whiteSpace=wrap;html=1;fontSize=19;fillColor=#dae8fc;strokeColor=#6c8ebf;" vertex="1" parent="1">
          <mxGeometry x="320" y="540" width="230" height="80" as="geometry" />
        </mxCell>
        <mxCell id="IkM9e0mJhmBElgOefRj0-79" style="edgeStyle=orthogonalEdgeStyle;rounded=1;orthogonalLoop=1;jettySize=auto;html=1;entryX=0.5;entryY=1;entryDx=0;entryDy=0;strokeColor=#000000;strokeWidth=3;exitX=0.5;exitY=0;exitDx=0;exitDy=0;" edge="1" parent="1" source="IkM9e0mJhmBElgOefRj0-35" target="IkM9e0mJhmBElgOefRj0-52">
          <mxGeometry relative="1" as="geometry">
            <Array as="points">
              <mxPoint x="1000" y="500" />
              <mxPoint x="580" y="500" />
            </Array>
          </mxGeometry>
        </mxCell>
        <mxCell id="IkM9e0mJhmBElgOefRj0-35" value="&lt;span style=&quot;color: rgb(51, 51, 51); font-family: &amp;quot;open sans&amp;quot;, &amp;quot;clear sans&amp;quot;, &amp;quot;helvetica neue&amp;quot;, helvetica, arial, sans-serif; font-size: 19px; text-align: left; background-color: rgb(255, 255, 255);&quot;&gt;&lt;b style=&quot;font-size: 19px;&quot;&gt;dim_space_guard_device_d&lt;br style=&quot;font-size: 19px;&quot;&gt;&lt;/b&gt;&lt;/span&gt;&lt;div style=&quot;resize: none; outline: 0px; font-size: 19px; color: rgb(50, 50, 50);&quot;&gt;出入口信息设备关联表&lt;/div&gt;&lt;div style=&quot;resize: none; outline: 0px; font-size: 19px; color: rgb(50, 50, 50);&quot;&gt;(只存储最大批次)&lt;/div&gt;" style="rounded=0;whiteSpace=wrap;html=1;fontSize=19;fillColor=#dae8fc;strokeColor=#6c8ebf;" vertex="1" parent="1">
          <mxGeometry x="840" y="540" width="320" height="80" as="geometry" />
        </mxCell>
        <mxCell id="IkM9e0mJhmBElgOefRj0-36" value="&lt;font style=&quot;font-size: 19px;&quot;&gt;&lt;b style=&quot;font-size: 19px;&quot;&gt;ABC&lt;/b&gt;&lt;/font&gt;" style="text;html=1;strokeColor=none;fillColor=none;align=center;verticalAlign=middle;whiteSpace=wrap;rounded=0;fontSize=19;fontColor=#FF2B0A;" vertex="1" parent="1">
          <mxGeometry x="-70" y="1000" width="200" height="105" as="geometry" />
        </mxCell>
        <mxCell id="IkM9e0mJhmBElgOefRj0-37" value="" style="endArrow=none;dashed=1;html=1;strokeWidth=2;fontSize=19;" edge="1" parent="1">
          <mxGeometry width="50" height="50" relative="1" as="geometry">
            <mxPoint x="-10" y="240" as="sourcePoint" />
            <mxPoint x="2480" y="240" as="targetPoint" />
          </mxGeometry>
        </mxCell>
        <mxCell id="IkM9e0mJhmBElgOefRj0-73" style="edgeStyle=orthogonalEdgeStyle;orthogonalLoop=1;jettySize=auto;html=1;entryX=0.5;entryY=1;entryDx=0;entryDy=0;strokeColor=#000000;strokeWidth=3;rounded=1;" edge="1" parent="1" source="IkM9e0mJhmBElgOefRj0-40" target="IkM9e0mJhmBElgOefRj0-45">
          <mxGeometry relative="1" as="geometry" />
        </mxCell>
        <mxCell id="IkM9e0mJhmBElgOefRj0-75" style="edgeStyle=orthogonalEdgeStyle;rounded=1;orthogonalLoop=1;jettySize=auto;html=1;entryX=0.5;entryY=1;entryDx=0;entryDy=0;strokeColor=#000000;strokeWidth=3;" edge="1" parent="1" source="IkM9e0mJhmBElgOefRj0-40" target="IkM9e0mJhmBElgOefRj0-44">
          <mxGeometry relative="1" as="geometry">
            <Array as="points">
              <mxPoint x="1040" y="210" />
              <mxPoint x="1520" y="210" />
            </Array>
          </mxGeometry>
        </mxCell>
        <mxCell id="IkM9e0mJhmBElgOefRj0-77" style="edgeStyle=orthogonalEdgeStyle;rounded=1;orthogonalLoop=1;jettySize=auto;html=1;entryX=0.5;entryY=1;entryDx=0;entryDy=0;strokeColor=#000000;strokeWidth=3;" edge="1" parent="1" source="IkM9e0mJhmBElgOefRj0-40" target="IkM9e0mJhmBElgOefRj0-52">
          <mxGeometry relative="1" as="geometry">
            <Array as="points">
              <mxPoint x="1040" y="210" />
              <mxPoint x="580" y="210" />
            </Array>
          </mxGeometry>
        </mxCell>
        <mxCell id="IkM9e0mJhmBElgOefRj0-40" value="&lt;font color=&quot;#333333&quot; face=&quot;open sans, clear sans, helvetica neue, helvetica, arial, sans-serif&quot;&gt;&lt;b&gt;dwr_vehicle.dwd_vehicle_entry_f&lt;/b&gt;&lt;/font&gt;&lt;div&gt;&lt;font color=&quot;#333333&quot; face=&quot;open sans, clear sans, helvetica neue, helvetica, arial, sans-serif&quot;&gt;&lt;b&gt;车辆进园表&lt;/b&gt;&lt;/font&gt;&lt;br&gt;&lt;/div&gt;" style="rounded=0;whiteSpace=wrap;html=1;fontSize=19;align=center;fillColor=#dae8fc;strokeColor=#6c8ebf;" vertex="1" parent="1">
          <mxGeometry x="840" y="320" width="400" height="90" as="geometry" />
        </mxCell>
        <mxCell id="IkM9e0mJhmBElgOefRj0-41" value="&lt;font style=&quot;font-size: 19px;&quot;&gt;&lt;b style=&quot;font-size: 19px;&quot;&gt;DWI&lt;/b&gt;&lt;/font&gt;" style="text;html=1;strokeColor=none;fillColor=none;align=center;verticalAlign=middle;whiteSpace=wrap;rounded=0;fontSize=19;fontColor=#2617FF;" vertex="1" parent="1">
          <mxGeometry x="60" y="670" width="200" height="100" as="geometry" />
        </mxCell>
        <mxCell id="IkM9e0mJhmBElgOefRj0-42" value="&lt;font style=&quot;font-size: 19px;&quot;&gt;&lt;b style=&quot;font-size: 19px;&quot;&gt;DM&lt;/b&gt;&lt;/font&gt;" style="text;html=1;strokeColor=none;fillColor=none;align=center;verticalAlign=middle;whiteSpace=wrap;rounded=0;fontSize=19;fontColor=#2617FF;" vertex="1" parent="1">
          <mxGeometry x="60" y="110" width="200" height="100" as="geometry" />
        </mxCell>
        <mxCell id="IkM9e0mJhmBElgOefRj0-43" value="&lt;font style=&quot;font-size: 19px;&quot;&gt;&lt;b style=&quot;font-size: 19px;&quot;&gt;DWR&lt;/b&gt;&lt;/font&gt;" style="text;html=1;strokeColor=none;fillColor=none;align=center;verticalAlign=middle;whiteSpace=wrap;rounded=0;fontSize=19;fontColor=#2617FF;" vertex="1" parent="1">
          <mxGeometry x="60" y="390" width="200" height="100" as="geometry" />
        </mxCell>
        <mxCell id="IkM9e0mJhmBElgOefRj0-44" value="&lt;div style=&quot;font-size: 19px&quot;&gt;&lt;/div&gt;&lt;font color=&quot;#333333&quot; face=&quot;open sans, clear sans, helvetica neue, helvetica, arial, sans-serif&quot;&gt;&lt;b&gt;dm_access_park_vehicle_num_f&lt;/b&gt;&lt;/font&gt;&lt;div&gt;&lt;font color=&quot;#333333&quot; face=&quot;open sans, clear sans, helvetica neue, helvetica, arial, sans-serif&quot;&gt;&lt;b&gt;在园车辆数汇总事实表&lt;/b&gt;&lt;/font&gt;&lt;br style=&quot;font-size: 19px&quot;&gt;&lt;/div&gt;" style="rounded=0;whiteSpace=wrap;html=1;fontSize=19;align=center;fillColor=#d5e8d4;strokeColor=#82b366;" vertex="1" parent="1">
          <mxGeometry x="1320" y="40" width="400" height="90" as="geometry" />
        </mxCell>
        <mxCell id="IkM9e0mJhmBElgOefRj0-45" value="&lt;font color=&quot;#333333&quot; face=&quot;open sans, clear sans, helvetica neue, helvetica, arial, sans-serif&quot;&gt;&lt;b&gt;dm_access_vehicle_flow_f&lt;/b&gt;&lt;/font&gt;&lt;div&gt;&lt;font color=&quot;#333333&quot; face=&quot;open sans, clear sans, helvetica neue, helvetica, arial, sans-serif&quot;&gt;&lt;b&gt;园区车辆进出汇总事实表&lt;/b&gt;&lt;/font&gt;&lt;br&gt;&lt;/div&gt;" style="rounded=0;whiteSpace=wrap;html=1;fontSize=19;align=center;fillColor=#d5e8d4;strokeColor=#82b366;" vertex="1" parent="1">
          <mxGeometry x="840" y="40" width="400" height="90" as="geometry" />
        </mxCell>
        <mxCell id="IkM9e0mJhmBElgOefRj0-87" style="edgeStyle=orthogonalEdgeStyle;rounded=1;orthogonalLoop=1;jettySize=auto;html=1;entryX=0.5;entryY=1;entryDx=0;entryDy=0;strokeColor=#000000;strokeWidth=3;" edge="1" parent="1" source="IkM9e0mJhmBElgOefRj0-47" target="IkM9e0mJhmBElgOefRj0-51">
          <mxGeometry relative="1" as="geometry">
            <Array as="points">
              <mxPoint x="2275" y="220" />
              <mxPoint x="1980" y="220" />
            </Array>
          </mxGeometry>
        </mxCell>
        <mxCell id="IkM9e0mJhmBElgOefRj0-47" value="维度表" style="swimlane;fontStyle=1;align=center;verticalAlign=top;childLayout=stackLayout;horizontal=1;startSize=26;horizontalStack=0;resizeParent=1;resizeParentMax=0;resizeLast=0;collapsible=1;marginBottom=0;fontSize=19;fontColor=#2617FF;" vertex="1" parent="1">
          <mxGeometry x="2160" y="490" width="230" height="140" as="geometry" />
        </mxCell>
        <mxCell id="IkM9e0mJhmBElgOefRj0-48" value="dim_space_date_d&#xa;日期维度表" style="text;strokeColor=#d79b00;fillColor=#ffe6cc;align=left;verticalAlign=top;spacingLeft=4;spacingRight=4;overflow=hidden;rotatable=0;points=[[0,0.5],[1,0.5]];portConstraint=eastwest;fontSize=19;fontStyle=1" vertex="1" parent="IkM9e0mJhmBElgOefRj0-47">
          <mxGeometry y="26" width="230" height="54" as="geometry" />
        </mxCell>
        <mxCell id="IkM9e0mJhmBElgOefRj0-49" value="" style="line;strokeWidth=1;fillColor=none;align=left;verticalAlign=middle;spacingTop=-1;spacingLeft=3;spacingRight=3;rotatable=0;labelPosition=right;points=[];portConstraint=eastwest;fontSize=19;" vertex="1" parent="IkM9e0mJhmBElgOefRj0-47">
          <mxGeometry y="80" width="230" height="8" as="geometry" />
        </mxCell>
        <mxCell id="IkM9e0mJhmBElgOefRj0-50" value="dim_space_time_d&#xa;时间维度表" style="text;strokeColor=#d79b00;fillColor=#ffe6cc;align=left;verticalAlign=top;spacingLeft=4;spacingRight=4;overflow=hidden;rotatable=0;points=[[0,0.5],[1,0.5]];portConstraint=eastwest;fontSize=19;fontStyle=1" vertex="1" parent="IkM9e0mJhmBElgOefRj0-47">
          <mxGeometry y="88" width="230" height="52" as="geometry" />
        </mxCell>
        <mxCell id="IkM9e0mJhmBElgOefRj0-51" value="&lt;font color=&quot;#333333&quot; face=&quot;open sans, clear sans, helvetica neue, helvetica, arial, sans-serif&quot;&gt;&lt;b&gt;dm_access_vehicle_park_trend_f&lt;/b&gt;&lt;/font&gt;&lt;br&gt;&lt;div&gt;&lt;font color=&quot;#333333&quot; face=&quot;open sans, clear sans, helvetica neue, helvetica, arial, sans-serif&quot;&gt;&lt;b&gt;园区车辆趋势汇总事实表&lt;/b&gt;&lt;/font&gt;&lt;br&gt;&lt;/div&gt;" style="rounded=0;whiteSpace=wrap;html=1;fontSize=19;align=center;fillColor=#d5e8d4;strokeColor=#82b366;" vertex="1" parent="1">
          <mxGeometry x="1800" y="40" width="360" height="90" as="geometry" />
        </mxCell>
        <mxCell id="IkM9e0mJhmBElgOefRj0-52" value="&lt;font color=&quot;#333333&quot; face=&quot;open sans, clear sans, helvetica neue, helvetica, arial, sans-serif&quot;&gt;&lt;b&gt;dm_access_vehicle_flow_five_min_f&lt;/b&gt;&lt;/font&gt;&lt;br&gt;&lt;div&gt;&lt;font color=&quot;#333333&quot; face=&quot;open sans, clear sans, helvetica neue, helvetica, arial, sans-serif&quot;&gt;&lt;b&gt;停车场园区出入口近5分钟的车流量表&lt;/b&gt;&lt;/font&gt;&lt;br&gt;&lt;/div&gt;" style="rounded=0;whiteSpace=wrap;html=1;fontSize=19;align=center;fillColor=#d5e8d4;strokeColor=#82b366;" vertex="1" parent="1">
          <mxGeometry x="400" y="40" width="360" height="90" as="geometry" />
        </mxCell>
        <mxCell id="IkM9e0mJhmBElgOefRj0-74" style="edgeStyle=orthogonalEdgeStyle;rounded=1;orthogonalLoop=1;jettySize=auto;html=1;entryX=0.5;entryY=1;entryDx=0;entryDy=0;strokeColor=#000000;strokeWidth=3;" edge="1" parent="1" source="IkM9e0mJhmBElgOefRj0-53" target="IkM9e0mJhmBElgOefRj0-45">
          <mxGeometry relative="1" as="geometry">
            <Array as="points">
              <mxPoint x="1520" y="210" />
              <mxPoint x="1040" y="210" />
            </Array>
          </mxGeometry>
        </mxCell>
        <mxCell id="IkM9e0mJhmBElgOefRj0-53" value="&lt;font color=&quot;#333333&quot; face=&quot;open sans, clear sans, helvetica neue, helvetica, arial, sans-serif&quot;&gt;&lt;b&gt;dwr_vehicle.dwd_vehicle_exits_f&lt;/b&gt;&lt;/font&gt;&lt;br&gt;&lt;div&gt;&lt;font color=&quot;#333333&quot; face=&quot;open sans, clear sans, helvetica neue, helvetica, arial, sans-serif&quot;&gt;&lt;b&gt;车辆出园表&lt;/b&gt;&lt;/font&gt;&lt;br&gt;&lt;/div&gt;" style="rounded=0;whiteSpace=wrap;html=1;fontSize=19;align=center;fillColor=#dae8fc;strokeColor=#6c8ebf;" vertex="1" parent="1">
          <mxGeometry x="1320" y="320" width="400" height="90" as="geometry" />
        </mxCell>
        <mxCell id="IkM9e0mJhmBElgOefRj0-86" style="edgeStyle=orthogonalEdgeStyle;rounded=1;orthogonalLoop=1;jettySize=auto;html=1;strokeColor=#000000;strokeWidth=3;" edge="1" parent="1" source="IkM9e0mJhmBElgOefRj0-84" target="IkM9e0mJhmBElgOefRj0-51">
          <mxGeometry relative="1" as="geometry" />
        </mxCell>
        <mxCell id="IkM9e0mJhmBElgOefRj0-84" value="&lt;font color=&quot;#333333&quot; face=&quot;open sans, clear sans, helvetica neue, helvetica, arial, sans-serif&quot;&gt;&lt;b&gt;dwr_vehicle.dwd_vehicle_park_space_f&lt;/b&gt;&lt;/font&gt;&lt;br&gt;&lt;div&gt;&lt;font color=&quot;#333333&quot; face=&quot;open sans, clear sans, helvetica neue, helvetica, arial, sans-serif&quot;&gt;&lt;b&gt;实时车位信息主题表&lt;/b&gt;&lt;/font&gt;&lt;br&gt;&lt;/div&gt;" style="rounded=0;whiteSpace=wrap;html=1;fontSize=19;align=center;fillColor=#dae8fc;strokeColor=#6c8ebf;" vertex="1" parent="1">
          <mxGeometry x="1780" y="320" width="400" height="90" as="geometry" />
        </mxCell>
        <mxCell id="IkM9e0mJhmBElgOefRj0-90" style="edgeStyle=orthogonalEdgeStyle;rounded=1;orthogonalLoop=1;jettySize=auto;html=1;entryX=0.5;entryY=1;entryDx=0;entryDy=0;strokeColor=#000000;strokeWidth=3;" edge="1" parent="1" source="IkM9e0mJhmBElgOefRj0-88" target="IkM9e0mJhmBElgOefRj0-89">
          <mxGeometry relative="1" as="geometry" />
        </mxCell>
        <mxCell id="IkM9e0mJhmBElgOefRj0-88" value="&lt;span style=&quot;text-align: left ; background-color: rgb(255 , 255 , 255)&quot;&gt;&lt;font&gt;&lt;font color=&quot;#333333&quot;&gt;&lt;b&gt;dwi_person.dwi_person_vehicle&lt;/b&gt;&lt;/font&gt;&lt;br style=&quot;font-size: 19px&quot;&gt;&lt;font color=&quot;#333333&quot;&gt;&lt;b&gt;人员车辆桥接表&lt;/b&gt;&lt;/font&gt;&lt;br style=&quot;font-size: 19px&quot;&gt;&lt;/font&gt;&lt;/span&gt;" style="rounded=0;whiteSpace=wrap;html=1;fontSize=19;fillColor=#fff2cc;strokeColor=#d6b656;" vertex="1" parent="1">
          <mxGeometry x="3070" y="730" width="400" height="80" as="geometry" />
        </mxCell>
        <mxCell id="IkM9e0mJhmBElgOefRj0-89" value="&lt;font color=&quot;#333333&quot; face=&quot;open sans, clear sans, helvetica neue, helvetica, arial, sans-serif&quot;&gt;&lt;b&gt;dwr_dim.dim_person_vehicle_b&lt;/b&gt;&lt;/font&gt;&lt;div&gt;&lt;font color=&quot;#333333&quot; face=&quot;open sans, clear sans, helvetica neue, helvetica, arial, sans-serif&quot;&gt;&lt;b&gt;人员车辆桥接表&lt;/b&gt;&lt;/font&gt;&lt;br&gt;&lt;/div&gt;" style="rounded=0;whiteSpace=wrap;html=1;fontSize=19;align=center;fillColor=#dae8fc;strokeColor=#6c8ebf;" vertex="1" parent="1">
          <mxGeometry x="3070" y="340" width="400" height="90" as="geometry" />
        </mxCell>
        <mxCell id="IkM9e0mJhmBElgOefRj0-92" value="&lt;font color=&quot;#333333&quot; face=&quot;open sans, clear sans, helvetica neue, helvetica, arial, sans-serif&quot;&gt;&lt;b&gt;dwr_dim.dim_vehicle_info_d&lt;/b&gt;&lt;/font&gt;&lt;br&gt;&lt;div&gt;&lt;font color=&quot;#333333&quot; face=&quot;open sans, clear sans, helvetica neue, helvetica, arial, sans-serif&quot;&gt;&lt;b&gt;车辆信息维表&lt;/b&gt;&lt;/font&gt;&lt;br&gt;&lt;/div&gt;" style="rounded=0;whiteSpace=wrap;html=1;fontSize=19;align=center;fillColor=#dae8fc;strokeColor=#6c8ebf;" vertex="1" parent="1">
          <mxGeometry x="1320" y="470" width="320" height="90" as="geometry" />
        </mxCell>
        <mxCell id="IkM9e0mJhmBElgOefRj0-98" style="edgeStyle=orthogonalEdgeStyle;rounded=1;orthogonalLoop=1;jettySize=auto;html=1;strokeColor=#000000;strokeWidth=3;" edge="1" parent="1" source="IkM9e0mJhmBElgOefRj0-97" target="IkM9e0mJhmBElgOefRj0-92">
          <mxGeometry relative="1" as="geometry" />
        </mxCell>
        <mxCell id="IkM9e0mJhmBElgOefRj0-97" value="&lt;span style=&quot;text-align: left ; background-color: rgb(255 , 255 , 255)&quot;&gt;&lt;font&gt;&lt;font color=&quot;#333333&quot; style=&quot;font-size: 20px&quot;&gt;&lt;b&gt;&amp;nbsp;dwi_vehicle.dwi_vehicle_person_car_keytop&lt;/b&gt;&lt;/font&gt;&lt;br&gt;&lt;font color=&quot;#333333&quot;&gt;&lt;span style=&quot;font-size: 20px&quot;&gt;&lt;b&gt;车辆人员映射维表&lt;/b&gt;&lt;/span&gt;&lt;/font&gt;&lt;br style=&quot;font-size: 19px&quot;&gt;&lt;/font&gt;&lt;/span&gt;" style="rounded=0;whiteSpace=wrap;html=1;fontSize=19;fillColor=#fff2cc;strokeColor=#d6b656;" vertex="1" parent="1">
          <mxGeometry x="1260" y="720" width="440" height="90" as="geometry" />
        </mxCell>
        <mxCell id="IkM9e0mJhmBElgOefRj0-99" value="&lt;font color=&quot;#333333&quot; face=&quot;open sans, clear sans, helvetica neue, helvetica, arial, sans-serif&quot;&gt;&lt;b&gt;dwr_dim.dim_vehicle_park_d&lt;/b&gt;&lt;/font&gt;&lt;div&gt;&lt;font color=&quot;#333333&quot; face=&quot;open sans, clear sans, helvetica neue, helvetica, arial, sans-serif&quot;&gt;&lt;b&gt;停车场信息维表&lt;/b&gt;&lt;/font&gt;&lt;br&gt;&lt;/div&gt;" style="rounded=0;whiteSpace=wrap;html=1;fontSize=19;align=center;fillColor=#dae8fc;strokeColor=#6c8ebf;" vertex="1" parent="1">
          <mxGeometry x="1720" y="470" width="370" height="90" as="geometry" />
        </mxCell>
        <mxCell id="IkM9e0mJhmBElgOefRj0-108" style="edgeStyle=orthogonalEdgeStyle;rounded=1;orthogonalLoop=1;jettySize=auto;html=1;entryX=1;entryY=0.5;entryDx=0;entryDy=0;strokeColor=#000000;strokeWidth=3;" edge="1" parent="1" source="IkM9e0mJhmBElgOefRj0-101" target="IkM9e0mJhmBElgOefRj0-84">
          <mxGeometry relative="1" as="geometry">
            <Array as="points">
              <mxPoint x="2825" y="365" />
            </Array>
          </mxGeometry>
        </mxCell>
        <mxCell id="IkM9e0mJhmBElgOefRj0-101" value="&lt;span style=&quot;text-align: left ; background-color: rgb(255 , 255 , 255)&quot;&gt;&lt;font&gt;&lt;font color=&quot;#333333&quot;&gt;&lt;b&gt;dwi_vehicle.dwi_vehicle_park_space_keytop&lt;/b&gt;&lt;/font&gt;&lt;br style=&quot;font-size: 19px&quot;&gt;&lt;font color=&quot;#333333&quot;&gt;&lt;b&gt;停车场实时车位信息贴源表&lt;/b&gt;&lt;/font&gt;&lt;br style=&quot;font-size: 19px&quot;&gt;&lt;/font&gt;&lt;/span&gt;" style="rounded=0;whiteSpace=wrap;html=1;fontSize=19;fillColor=#fff2cc;strokeColor=#d6b656;" vertex="1" parent="1">
          <mxGeometry x="2620" y="720" width="410" height="90" as="geometry" />
        </mxCell>
        <mxCell id="IkM9e0mJhmBElgOefRj0-106" style="edgeStyle=orthogonalEdgeStyle;rounded=1;orthogonalLoop=1;jettySize=auto;html=1;entryX=0.5;entryY=1;entryDx=0;entryDy=0;strokeColor=#000000;strokeWidth=3;" edge="1" parent="1" source="IkM9e0mJhmBElgOefRj0-102" target="IkM9e0mJhmBElgOefRj0-32">
          <mxGeometry relative="1" as="geometry">
            <Array as="points">
              <mxPoint x="2455" y="670" />
              <mxPoint x="2558" y="670" />
            </Array>
          </mxGeometry>
        </mxCell>
        <mxCell id="IkM9e0mJhmBElgOefRj0-102" value="&lt;span style=&quot;color: rgb(51, 51, 51); font-family: &amp;quot;open sans&amp;quot;, &amp;quot;clear sans&amp;quot;, &amp;quot;helvetica neue&amp;quot;, helvetica, arial, sans-serif; font-size: 19px; text-align: left; background-color: rgb(248, 248, 248);&quot;&gt;&lt;span style=&quot;font-size: 19px;&quot;&gt;dwi_space_record&lt;br style=&quot;font-size: 19px;&quot;&gt;&lt;/span&gt;&lt;/span&gt;&lt;span style=&quot;color: rgb(50, 50, 50); font-size: 19px; background-color: rgba(255, 255, 255, 0.01);&quot;&gt;空间信息表&lt;/span&gt;&lt;span style=&quot;color: rgb(51, 51, 51); font-family: &amp;quot;open sans&amp;quot;, &amp;quot;clear sans&amp;quot;, &amp;quot;helvetica neue&amp;quot;, helvetica, arial, sans-serif; font-size: 19px; text-align: left; background-color: rgb(248, 248, 248);&quot;&gt;&lt;span style=&quot;font-size: 19px;&quot;&gt;&lt;br style=&quot;font-size: 19px;&quot;&gt;&lt;/span&gt;&lt;/span&gt;" style="rounded=0;whiteSpace=wrap;html=1;fontStyle=1;fontSize=19;fillColor=#fff2cc;strokeColor=#d6b656;" vertex="1" parent="1">
          <mxGeometry x="2350" y="720" width="210" height="90" as="geometry" />
        </mxCell>
        <mxCell id="IkM9e0mJhmBElgOefRj0-107" style="edgeStyle=orthogonalEdgeStyle;rounded=1;orthogonalLoop=1;jettySize=auto;html=1;entryX=1;entryY=0.5;entryDx=0;entryDy=0;strokeColor=#000000;strokeWidth=3;" edge="1" parent="1" source="IkM9e0mJhmBElgOefRj0-32" target="IkM9e0mJhmBElgOefRj0-84">
          <mxGeometry relative="1" as="geometry">
            <Array as="points">
              <mxPoint x="2558" y="365" />
            </Array>
          </mxGeometry>
        </mxCell>
        <mxCell id="IkM9e0mJhmBElgOefRj0-32" value="&lt;span style=&quot;text-align: left; background-color: rgb(248, 248, 248); font-size: 19px;&quot;&gt;&lt;b style=&quot;color: rgb(51, 51, 51); font-family: &amp;quot;open sans&amp;quot;, &amp;quot;clear sans&amp;quot;, &amp;quot;helvetica neue&amp;quot;, helvetica, arial, sans-serif; font-size: 19px;&quot;&gt;dim_space_record_d&lt;/b&gt;&lt;br style=&quot;font-size: 19px;&quot;&gt;&lt;font color=&quot;#333333&quot; face=&quot;open sans, clear sans, helvetica neue, helvetica, arial, sans-serif&quot; style=&quot;font-size: 19px;&quot;&gt;&lt;b style=&quot;font-size: 19px;&quot;&gt;空间维度表&lt;/b&gt;&lt;/font&gt;&lt;br style=&quot;font-size: 19px;&quot;&gt;&lt;/span&gt;" style="rounded=0;whiteSpace=wrap;html=1;fontSize=19;fillColor=#dae8fc;strokeColor=#6c8ebf;" vertex="1" parent="1">
          <mxGeometry x="2440" y="520" width="235.5" height="80" as="geometry" />
        </mxCell>
        <mxCell id="IkM9e0mJhmBElgOefRj0-104" value="" style="endArrow=none;dashed=1;html=1;strokeWidth=2;fontSize=19;" edge="1" parent="1">
          <mxGeometry width="50" height="50" relative="1" as="geometry">
            <mxPoint x="4.547473508864641e-13" y="660" as="sourcePoint" />
            <mxPoint x="3510" y="660" as="targetPoint" />
          </mxGeometry>
        </mxCell>
      </root>
    </mxGraphModel>
  </diagram>
</mxfile>
